<svg xmlns="http://www.w3.org/2000/svg" xmlns:xlink="http://www.w3.org/1999/xlink" viewBox="0 0 688 540" width="688" height="540"><path d="M 533.500,310.625 C 533.500,305.625 533.500,305.625 533.500,300.625" stroke-width="4.922" stroke="black" fill="none" stroke-linecap="round"></path><path d="M 533.500,300.625 C 533.500,295.625 533.500,295.625 533.500,290.625" stroke-width="3.867" stroke="black" fill="none" stroke-linecap="round"></path><path d="M 533.500,290.625 C 533.500,285.625 533.500,285.625 533.500,280.625" stroke-width="3.633" stroke="black" fill="none" stroke-linecap="round"></path><path d="M 533.500,280.625 C 533.972,275.582 533.500,275.625 533.500,270.625" stroke-width="4.312" stroke="black" fill="none" stroke-linecap="round"></path><path d="M 533.500,270.625 C 532.255,265.158 532.972,265.082 531.500,259.625" stroke-width="3.559" stroke="black" fill="none" stroke-linecap="round"></path><path d="M 531.500,259.625 C 530.824,254.133 530.755,254.158 530.500,248.625" stroke-width="3.453" stroke="black" fill="none" stroke-linecap="round"></path><path d="M 530.500,248.625 C 530.500,242.625 530.324,245.633 530.500,242.625" stroke-width="4.460" stroke="black" fill="none" stroke-linecap="round"></path><path d="M 530.500,242.625 C 530.500,245.625 530.500,242.625 530.500,248.625" stroke-width="5.065" stroke="black" fill="none" stroke-linecap="round"></path><path d="M 530.500,248.625 C 530.500,254.125 530.500,254.125 530.500,259.625" stroke-width="4.465" stroke="black" fill="none" stroke-linecap="round"></path><path d="M 530.500,259.625 C 531.316,263.818 530.500,263.625 530.500,267.625" stroke-width="4.544" stroke="black" fill="none" stroke-linecap="round"></path><path d="M 530.500,267.625 C 529.105,270.683 529.816,270.818 527.500,273.625" stroke-width="4.923" stroke="black" fill="none" stroke-linecap="round"></path><path d="M 527.500,273.625 C 524.023,276.480 526.105,276.183 524.500,278.625" stroke-width="4.822" stroke="black" fill="none" stroke-linecap="round"></path><path d="M 524.500,278.625 C 526.557,281.889 525.023,280.980 529.500,282.625" stroke-width="5.275" stroke="black" fill="none" stroke-linecap="round"></path><path d="M 529.500,282.625 C 535.000,282.625 534.557,283.889 540.500,282.625" stroke-width="3.819" stroke="black" fill="none" stroke-linecap="round"></path><path d="M 540.500,282.625 C 553.379,282.278 548.500,282.625 556.500,282.625" stroke-width="3.797" stroke="black" fill="none" stroke-linecap="round"></path><path d="M 556.500,282.625 C 552.949,282.886 557.879,282.778 549.500,283.625" stroke-width="4.822" stroke="black" fill="none" stroke-linecap="round"></path><path d="M 549.500,283.625 C 546.063,285.077 545.949,284.386 542.500,285.625" stroke-width="4.670" stroke="black" fill="none" stroke-linecap="round"></path><path d="M 542.500,285.625 C 539.500,285.625 539.563,286.077 536.500,285.625" stroke-width="4.747" stroke="black" fill="none" stroke-linecap="round"></path><path d="M 536.500,285.625 C 532.971,285.336 533.000,285.625 529.500,285.625" stroke-width="4.885" stroke="black" fill="none" stroke-linecap="round"></path><path d="M 529.500,285.625 C 527.008,286.169 526.971,285.836 524.500,286.625" stroke-width="5.192" stroke="black" fill="none" stroke-linecap="round"></path><path d="M 524.500,286.625 C 521.481,287.824 521.508,287.169 518.500,287.625" stroke-width="5.267" stroke="black" fill="none" stroke-linecap="round"></path><path d="M 518.500,287.625 C 513.631,287.395 513.981,287.324 509.500,285.625" stroke-width="5.168" stroke="black" fill="none" stroke-linecap="round"></path><path d="M 509.500,285.625 C 506.327,284.137 506.631,284.395 504.500,281.625" stroke-width="5.040" stroke="black" fill="none" stroke-linecap="round"></path><path d="M 504.500,281.625 C 502.339,278.261 502.327,278.637 501.500,274.625" stroke-width="4.970" stroke="black" fill="none" stroke-linecap="round"></path><path d="M 501.500,274.625 C 501.252,268.625 500.839,271.761 501.500,268.625" stroke-width="5.145" stroke="black" fill="none" stroke-linecap="round"></path><path d="M 501.500,268.625 C 502.268,271.603 501.752,268.625 502.500,274.625" stroke-width="5.266" stroke="black" fill="none" stroke-linecap="round"></path><path d="M 502.500,274.625 C 503.606,278.583 502.768,278.103 502.500,281.625" stroke-width="5.271" stroke="black" fill="none" stroke-linecap="round"></path><path d="M 502.500,281.625 C 500.611,285.625 501.606,284.083 498.500,285.625" stroke-width="5.366" stroke="black" fill="none" stroke-linecap="round"></path><path d="M 498.500,285.625 C 495.594,283.980 496.111,285.625 493.500,281.625" stroke-width="5.390" stroke="black" fill="none" stroke-linecap="round"></path><path d="M 493.500,281.625 C 492.277,276.879 491.594,279.480 490.500,276.625" stroke-width="5.146" stroke="black" fill="none" stroke-linecap="round"></path><path d="M 490.500,276.625 C 488.258,278.427 488.777,276.379 486.500,280.625" stroke-width="5.403" stroke="black" fill="none" stroke-linecap="round"></path><path d="M 486.500,280.625 C 485.247,284.512 484.258,283.427 482.500,286.625" stroke-width="5.161" stroke="black" fill="none" stroke-linecap="round"></path><path d="M 482.500,286.625 C 478.100,288.900 478.747,289.512 473.500,290.625" stroke-width="4.817" stroke="black" fill="none" stroke-linecap="round"></path><path d="M 473.500,290.625 C 470.063,292.077 470.100,291.900 466.500,292.625" stroke-width="4.687" stroke="black" fill="none" stroke-linecap="round"></path><path d="M 466.500,292.625 C 463.500,292.625 463.563,293.077 460.500,292.625" stroke-width="4.303" stroke="black" fill="none" stroke-linecap="round"></path><path d="M 460.500,292.625 C 454.847,291.781 455.000,292.625 449.500,292.625" stroke-width="3.701" stroke="black" fill="none" stroke-linecap="round"></path><path d="M 449.500,292.625 C 445.632,294.850 445.347,293.281 441.500,295.625" stroke-width="4.223" stroke="black" fill="none" stroke-linecap="round"></path><path d="M 441.500,295.625 C 437.500,295.625 437.632,296.350 433.500,295.625" stroke-width="3.936" stroke="black" fill="none" stroke-linecap="round"></path><path d="M 433.500,295.625 C 428.000,295.625 428.000,295.625 422.500,295.625" stroke-width="4.151" stroke="black" fill="none" stroke-linecap="round"></path><path d="M 464.500,289.625 C 464.170,287.080 464.000,287.125 463.500,284.625" stroke-width="5.472" stroke="black" fill="none" stroke-linecap="round"></path><path d="M 463.500,284.625 C 462.013,281.704 462.670,281.580 461.500,278.625" stroke-width="4.905" stroke="black" fill="none" stroke-linecap="round"></path><path d="M 461.500,278.625 C 461.952,275.562 461.013,275.704 461.500,272.625" stroke-width="4.979" stroke="black" fill="none" stroke-linecap="round"></path><path d="M 461.500,272.625 C 460.261,269.176 460.952,269.062 459.500,265.625" stroke-width="4.931" stroke="black" fill="none" stroke-linecap="round"></path><path d="M 459.500,265.625 C 459.038,262.119 458.761,262.176 458.500,258.625" stroke-width="4.718" stroke="black" fill="none" stroke-linecap="round"></path><path d="M 458.500,258.625 C 457.732,255.647 458.038,255.619 457.500,252.625" stroke-width="5.021" stroke="black" fill="none" stroke-linecap="round"></path><path d="M 457.500,252.625 C 457.500,249.125 457.232,249.147 457.500,245.625" stroke-width="4.766" stroke="black" fill="none" stroke-linecap="round"></path><path d="M 457.500,245.625 C 457.748,239.625 457.500,242.625 457.500,239.625" stroke-width="5.204" stroke="black" fill="none" stroke-linecap="round"></path><path d="M 457.500,239.625 C 456.752,242.604 457.248,239.625 456.500,245.625" stroke-width="5.281" stroke="black" fill="none" stroke-linecap="round"></path><path d="M 456.500,245.625 C 456.500,248.625 456.252,248.604 456.500,251.625" stroke-width="4.921" stroke="black" fill="none" stroke-linecap="round"></path><path d="M 456.500,251.625 C 456.748,254.646 456.500,254.625 456.500,257.625" stroke-width="4.807" stroke="black" fill="none" stroke-linecap="round"></path><path d="M 456.500,257.625 C 455.732,260.603 456.248,260.646 455.500,263.625" stroke-width="4.767" stroke="black" fill="none" stroke-linecap="round"></path><path d="M 455.500,263.625 C 455.500,267.125 455.232,267.103 455.500,270.625" stroke-width="4.899" stroke="black" fill="none" stroke-linecap="round"></path><path d="M 455.500,270.625 C 455.748,273.646 455.500,273.625 455.500,276.625" stroke-width="4.985" stroke="black" fill="none" stroke-linecap="round"></path><path d="M 455.500,276.625 C 455.795,280.034 455.248,279.646 454.500,282.625" stroke-width="5.172" stroke="black" fill="none" stroke-linecap="round"></path><path d="M 454.500,282.625 C 452.611,284.749 453.295,285.034 450.500,286.625" stroke-width="5.283" stroke="black" fill="none" stroke-linecap="round"></path><path d="M 450.500,286.625 C 447.594,288.270 448.111,288.749 445.500,290.625" stroke-width="5.416" stroke="black" fill="none" stroke-linecap="round"></path><path d="M 445.500,290.625 C 444.579,293.805 443.594,292.770 442.500,295.625" stroke-width="5.436" stroke="black" fill="none" stroke-linecap="round"></path><path d="M 442.500,295.625 C 439.949,296.512 440.579,297.305 437.500,297.625" stroke-width="5.343" stroke="black" fill="none" stroke-linecap="round"></path><path d="M 437.500,297.625 C 434.500,299.125 434.449,299.012 431.500,300.625" stroke-width="5.185" stroke="black" fill="none" stroke-linecap="round"></path><path d="M 431.500,300.625 C 427.592,302.835 427.500,302.625 423.500,304.625" stroke-width="4.650" stroke="black" fill="none" stroke-linecap="round"></path><path d="M 423.500,304.625 C 419.487,306.092 419.592,306.335 415.500,307.625" stroke-width="4.501" stroke="black" fill="none" stroke-linecap="round"></path><path d="M 415.500,307.625 C 413.109,309.190 412.987,308.592 410.500,309.625" stroke-width="4.756" stroke="black" fill="none" stroke-linecap="round"></path><path d="M 410.500,309.625 C 407.000,309.625 407.109,310.190 403.500,309.625" stroke-width="4.692" stroke="black" fill="none" stroke-linecap="round"></path><path d="M 403.500,309.625 C 399.500,309.625 399.500,309.625 395.500,309.625" stroke-width="4.594" stroke="black" fill="none" stroke-linecap="round"></path><path d="M 428.500,293.625 C 425.473,293.895 425.500,293.625 422.500,293.625" stroke-width="5.245" stroke="black" fill="none" stroke-linecap="round"></path><path d="M 422.500,293.625 C 419.833,293.558 419.973,293.395 417.500,292.625" stroke-width="4.978" stroke="black" fill="none" stroke-linecap="round"></path><path d="M 417.500,292.625 C 414.760,291.433 414.833,291.558 412.500,289.625" stroke-width="4.822" stroke="black" fill="none" stroke-linecap="round"></path><path d="M 412.500,289.625 C 409.692,287.365 409.760,287.433 407.500,284.625" stroke-width="4.194" stroke="black" fill="none" stroke-linecap="round"></path><path d="M 407.500,284.625 C 405.479,282.317 405.692,282.365 404.500,279.625" stroke-width="4.730" stroke="black" fill="none" stroke-linecap="round"></path><path d="M 404.500,279.625 C 403.689,276.651 403.479,276.817 403.500,273.625" stroke-width="4.303" stroke="black" fill="none" stroke-linecap="round"></path><path d="M 403.500,273.625 C 402.492,268.411 403.189,268.651 403.500,263.625" stroke-width="3.677" stroke="black" fill="none" stroke-linecap="round"></path><path d="M 403.500,263.625 C 405.076,258.867 404.492,258.911 407.500,254.625" stroke-width="3.538" stroke="black" fill="none" stroke-linecap="round"></path><path d="M 407.500,254.625 C 409.065,251.617 409.076,251.867 411.500,249.625" stroke-width="3.905" stroke="black" fill="none" stroke-linecap="round"></path><path d="M 411.500,249.625 C 414.750,246.875 414.565,247.117 418.500,245.625" stroke-width="4.316" stroke="black" fill="none" stroke-linecap="round"></path><path d="M 418.500,245.625 C 422.595,245.544 422.250,244.375 426.500,244.625" stroke-width="4.475" stroke="black" fill="none" stroke-linecap="round"></path><path d="M 426.500,244.625 C 430.916,242.771 431.095,243.544 435.500,241.625" stroke-width="4.400" stroke="black" fill="none" stroke-linecap="round"></path><path d="M 435.500,241.625 C 438.984,240.977 438.916,240.771 442.500,240.625" stroke-width="4.038" stroke="black" fill="none" stroke-linecap="round"></path><path d="M 442.500,240.625 C 449.177,240.942 448.984,239.977 455.500,239.625" stroke-width="4.338" stroke="black" fill="none" stroke-linecap="round"></path><path d="M 455.500,239.625 C 460.881,236.947 461.177,238.442 466.500,235.625" stroke-width="3.513" stroke="black" fill="none" stroke-linecap="round"></path><path d="M 466.500,235.625 C 470.517,234.083 469.381,234.947 472.500,235.625" stroke-width="4.289" stroke="black" fill="none" stroke-linecap="round"></path><path d="M 472.500,235.625 C 474.944,239.011 475.017,237.583 475.500,242.625" stroke-width="4.785" stroke="black" fill="none" stroke-linecap="round"></path><path d="M 475.500,242.625 C 475.451,245.772 475.944,245.511 474.500,248.625" stroke-width="4.265" stroke="black" fill="none" stroke-linecap="round"></path><path d="M 474.500,248.625 C 473.090,251.673 473.451,251.772 471.500,254.625" stroke-width="4.100" stroke="black" fill="none" stroke-linecap="round"></path><path d="M 471.500,254.625 C 469.301,258.023 469.590,258.173 467.500,261.625" stroke-width="3.841" stroke="black" fill="none" stroke-linecap="round"></path><path d="M 467.500,261.625 C 464.741,267.023 464.801,267.023 462.500,272.625" stroke-width="3.372" stroke="black" fill="none" stroke-linecap="round"></path><path d="M 462.500,272.625 C 460.862,277.083 460.741,277.023 459.500,281.625" stroke-width="3.584" stroke="black" fill="none" stroke-linecap="round"></path><path d="M 459.500,281.625 C 457.882,287.097 457.862,287.083 456.500,292.625" stroke-width="3.369" stroke="black" fill="none" stroke-linecap="round"></path><path d="M 456.500,292.625 C 454.567,295.759 455.882,295.097 455.500,297.625" stroke-width="4.416" stroke="black" fill="none" stroke-linecap="round"></path><path d="M 455.500,297.625 C 457.773,299.943 456.567,299.759 460.500,300.625" stroke-width="5.049" stroke="black" fill="none" stroke-linecap="round"></path><path d="M 460.500,300.625 C 464.000,300.625 463.773,301.443 467.500,300.625" stroke-width="5.075" stroke="black" fill="none" stroke-linecap="round"></path><path d="M 467.500,300.625 C 472.739,301.893 470.500,300.625 473.500,300.625" stroke-width="5.030" stroke="black" fill="none" stroke-linecap="round"></path><path d="M 473.500,300.625 C 472.718,296.857 474.239,299.393 470.500,295.625" stroke-width="5.282" stroke="black" fill="none" stroke-linecap="round"></path><path d="M 470.500,295.625 C 467.500,295.625 468.218,294.357 464.500,295.625" stroke-width="5.268" stroke="black" fill="none" stroke-linecap="round"></path><path d="M 464.500,295.625 C 460.819,294.859 461.000,295.625 457.500,295.625" stroke-width="5.039" stroke="black" fill="none" stroke-linecap="round"></path><path d="M 457.500,295.625 C 454.551,297.238 454.319,296.359 451.500,298.625" stroke-width="4.795" stroke="black" fill="none" stroke-linecap="round"></path><path d="M 451.500,298.625 C 449.000,299.625 449.051,299.738 446.500,300.625" stroke-width="4.369" stroke="black" fill="none" stroke-linecap="round"></path><path d="M 446.500,300.625 C 444.052,301.774 444.000,301.625 441.500,302.625" stroke-width="4.300" stroke="black" fill="none" stroke-linecap="round"></path><path d="M 441.500,302.625 C 436.539,304.281 436.552,304.274 431.500,305.625" stroke-width="4.281" stroke="black" fill="none" stroke-linecap="round"></path><path d="M 431.500,305.625 C 429.032,306.444 429.039,306.281 426.500,306.625" stroke-width="4.270" stroke="black" fill="none" stroke-linecap="round"></path><path d="M 426.500,306.625 C 421.980,306.905 422.032,306.944 417.500,306.625" stroke-width="4.393" stroke="black" fill="none" stroke-linecap="round"></path><path d="M 417.500,306.625 C 413.931,306.417 413.980,306.405 410.500,305.625" stroke-width="4.139" stroke="black" fill="none" stroke-linecap="round"></path><path d="M 410.500,305.625 C 407.097,305.277 407.431,304.917 404.500,303.625" stroke-width="4.529" stroke="black" fill="none" stroke-linecap="round"></path><path d="M 404.500,303.625 C 401.184,301.656 401.597,301.777 399.500,298.625" stroke-width="4.174" stroke="black" fill="none" stroke-linecap="round"></path><path d="M 399.500,298.625 C 397.024,292.116 396.184,292.656 394.500,285.625" stroke-width="3.965" stroke="black" fill="none" stroke-linecap="round"></path><path d="M 394.500,285.625 C 393.101,280.024 393.524,283.116 392.500,280.625" stroke-width="4.175" stroke="black" fill="none" stroke-linecap="round"></path><path d="M 392.500,280.625 C 391.768,284.611 391.601,281.524 391.500,288.625" stroke-width="4.934" stroke="black" fill="none" stroke-linecap="round"></path><path d="M 391.500,288.625 C 391.789,292.154 391.268,292.111 391.500,295.625" stroke-width="4.228" stroke="black" fill="none" stroke-linecap="round"></path><path d="M 391.500,295.625 C 391.959,298.923 391.289,298.154 390.500,300.625" stroke-width="4.683" stroke="black" fill="none" stroke-linecap="round"></path><path d="M 390.500,300.625 C 387.421,303.345 388.959,302.423 385.500,302.625" stroke-width="5.146" stroke="black" fill="none" stroke-linecap="round"></path><path d="M 385.500,302.625 C 384.168,300.008 383.421,301.845 382.500,297.625" stroke-width="5.077" stroke="black" fill="none" stroke-linecap="round"></path><path d="M 382.500,297.625 C 380.527,292.400 380.668,295.008 378.500,292.625" stroke-width="5.117" stroke="black" fill="none" stroke-linecap="round"></path><path d="M 378.500,292.625 C 375.790,295.476 376.027,292.900 373.500,298.625" stroke-width="5.251" stroke="black" fill="none" stroke-linecap="round"></path><path d="M 373.500,298.625 C 372.277,301.341 371.790,300.976 370.500,303.625" stroke-width="4.912" stroke="black" fill="none" stroke-linecap="round"></path><path d="M 370.500,303.625 C 368.037,305.320 368.777,305.841 366.500,307.625" stroke-width="4.452" stroke="black" fill="none" stroke-linecap="round"></path><path d="M 349.500,296.625 C 349.354,293.041 349.000,293.125 348.500,289.625" stroke-width="5.263" stroke="black" fill="none" stroke-linecap="round"></path><path d="M 348.500,289.625 C 346.801,285.178 347.354,285.041 345.500,280.625" stroke-width="4.604" stroke="black" fill="none" stroke-linecap="round"></path><path d="M 345.500,280.625 C 345.000,278.125 344.801,278.178 344.500,275.625" stroke-width="4.407" stroke="black" fill="none" stroke-linecap="round"></path><path d="M 344.500,275.625 C 343.956,273.133 344.000,273.125 343.500,270.625" stroke-width="4.947" stroke="black" fill="none" stroke-linecap="round"></path><path d="M 343.500,270.625 C 343.044,267.617 342.956,267.633 342.500,264.625" stroke-width="4.303" stroke="black" fill="none" stroke-linecap="round"></path><path d="M 342.500,264.625 C 341.887,262.143 342.044,262.117 341.500,259.625" stroke-width="4.673" stroke="black" fill="none" stroke-linecap="round"></path><path d="M 341.500,259.625 C 341.288,255.566 340.887,255.643 340.500,251.625" stroke-width="4.978" stroke="black" fill="none" stroke-linecap="round"></path><path d="M 340.500,251.625 C 339.333,244.000 339.788,248.066 338.500,244.625" stroke-width="4.731" stroke="black" fill="none" stroke-linecap="round"></path><path d="M 338.500,244.625 C 337.060,249.581 337.333,245.500 336.500,254.625" stroke-width="5.222" stroke="black" fill="none" stroke-linecap="round"></path><path d="M 336.500,254.625 C 336.500,258.625 336.060,258.581 336.500,262.625" stroke-width="4.695" stroke="black" fill="none" stroke-linecap="round"></path><path d="M 336.500,262.625 C 336.500,265.625 336.500,265.625 336.500,268.625" stroke-width="5.013" stroke="black" fill="none" stroke-linecap="round"></path><path d="M 336.500,268.625 C 336.301,271.636 336.500,271.625 336.500,274.625" stroke-width="4.848" stroke="black" fill="none" stroke-linecap="round"></path><path d="M 336.500,274.625 C 337.199,279.114 336.801,279.136 337.500,283.625" stroke-width="5.011" stroke="black" fill="none" stroke-linecap="round"></path><path d="M 337.500,283.625 C 338.261,286.836 337.699,286.614 337.500,289.625" stroke-width="5.194" stroke="black" fill="none" stroke-linecap="round"></path><path d="M 337.500,289.625 C 336.277,292.341 336.761,292.336 334.500,294.625" stroke-width="5.286" stroke="black" fill="none" stroke-linecap="round"></path><path d="M 334.500,294.625 C 332.500,296.625 332.777,296.841 330.500,298.625" stroke-width="5.135" stroke="black" fill="none" stroke-linecap="round"></path><path d="M 330.500,298.625 C 328.716,300.902 328.500,300.625 326.500,302.625" stroke-width="5.070" stroke="black" fill="none" stroke-linecap="round"></path><path d="M 326.500,302.625 C 324.211,304.886 324.216,304.402 321.500,305.625" stroke-width="5.062" stroke="black" fill="none" stroke-linecap="round"></path><path d="M 321.500,305.625 C 317.507,307.231 318.711,306.386 315.500,305.625" stroke-width="5.132" stroke="black" fill="none" stroke-linecap="round"></path><path d="M 315.500,305.625 C 312.619,301.876 312.507,303.231 311.500,297.625" stroke-width="4.637" stroke="black" fill="none" stroke-linecap="round"></path><path d="M 311.500,297.625 C 310.806,292.134 310.119,292.376 310.500,286.625" stroke-width="3.704" stroke="black" fill="none" stroke-linecap="round"></path><path d="M 310.500,286.625 C 310.768,283.103 310.306,283.134 310.500,279.625" stroke-width="4.328" stroke="black" fill="none" stroke-linecap="round"></path><path d="M 310.500,279.625 C 308.723,274.143 310.268,276.603 309.500,273.625" stroke-width="5.046" stroke="black" fill="none" stroke-linecap="round"></path><path d="M 309.500,273.625 C 312.711,275.258 310.223,273.143 313.500,277.625" stroke-width="5.365" stroke="black" fill="none" stroke-linecap="round"></path><path d="M 313.500,277.625 C 313.959,280.923 314.211,279.758 312.500,282.625" stroke-width="5.363" stroke="black" fill="none" stroke-linecap="round"></path><path d="M 312.500,282.625 C 310.000,284.625 310.959,284.423 307.500,284.625" stroke-width="5.366" stroke="black" fill="none" stroke-linecap="round"></path><path d="M 307.500,284.625 C 304.250,284.375 305.000,284.625 302.500,282.625" stroke-width="5.435" stroke="black" fill="none" stroke-linecap="round"></path><path d="M 302.500,282.625 C 301.023,280.242 300.750,280.875 300.500,277.625" stroke-width="5.180" stroke="black" fill="none" stroke-linecap="round"></path><path d="M 300.500,277.625 C 299.813,272.634 299.523,272.742 299.500,267.625" stroke-width="4.540" stroke="black" fill="none" stroke-linecap="round"></path><path d="M 299.500,267.625 C 299.500,264.625 299.313,264.634 299.500,261.625" stroke-width="4.706" stroke="black" fill="none" stroke-linecap="round"></path><path d="M 299.500,261.625 C 299.500,257.625 299.500,257.625 299.500,253.625" stroke-width="4.930" stroke="black" fill="none" stroke-linecap="round"></path><path d="M 299.500,253.625 C 299.500,250.625 299.500,250.625 299.500,247.625" stroke-width="4.311" stroke="black" fill="none" stroke-linecap="round"></path><path d="M 299.500,247.625 C 299.770,244.598 299.500,244.625 299.500,241.625" stroke-width="4.799" stroke="black" fill="none" stroke-linecap="round"></path><path d="M 299.500,241.625 C 298.730,239.152 299.270,239.098 298.500,236.625" stroke-width="5.233" stroke="black" fill="none" stroke-linecap="round"></path><path d="M 298.500,236.625 C 298.500,230.394 298.230,233.652 298.500,230.625" stroke-width="5.307" stroke="black" fill="none" stroke-linecap="round"></path><path d="M 298.500,230.625 C 298.789,234.154 298.500,230.894 298.500,237.625" stroke-width="5.471" stroke="black" fill="none" stroke-linecap="round"></path><path d="M 298.500,237.625 C 298.230,240.193 298.289,240.154 297.500,242.625" stroke-width="5.202" stroke="black" fill="none" stroke-linecap="round"></path><path d="M 297.500,242.625 C 296.700,245.224 296.730,245.193 295.500,247.625" stroke-width="5.115" stroke="black" fill="none" stroke-linecap="round"></path><path d="M 295.500,247.625 C 291.451,251.786 294.200,250.224 292.500,252.625" stroke-width="5.307" stroke="black" fill="none" stroke-linecap="round"></path><path d="M 292.500,252.625 C 296.728,252.786 293.951,253.786 300.500,251.625" stroke-width="5.389" stroke="black" fill="none" stroke-linecap="round"></path><path d="M 300.500,251.625 C 302.901,249.925 303.228,250.786 305.500,248.625" stroke-width="4.931" stroke="black" fill="none" stroke-linecap="round"></path><path d="M 305.500,248.625 C 310.500,245.977 307.901,247.425 310.500,246.625" stroke-width="5.257" stroke="black" fill="none" stroke-linecap="round"></path><path d="M 310.500,246.625 C 308.322,249.572 310.500,247.477 305.500,251.625" stroke-width="5.407" stroke="black" fill="none" stroke-linecap="round"></path><path d="M 305.500,251.625 C 302.500,253.125 302.822,253.572 299.500,254.625" stroke-width="4.873" stroke="black" fill="none" stroke-linecap="round"></path><path d="M 299.500,254.625 C 295.557,256.752 295.500,256.625 291.500,258.625" stroke-width="4.571" stroke="black" fill="none" stroke-linecap="round"></path><path d="M 291.500,258.625 C 288.901,259.425 289.057,259.752 286.500,260.625" stroke-width="4.780" stroke="black" fill="none" stroke-linecap="round"></path><path d="M 286.500,260.625 C 284.018,262.156 283.901,261.925 281.500,263.625" stroke-width="4.795" stroke="black" fill="none" stroke-linecap="round"></path><path d="M 281.500,263.625 C 277.844,265.396 278.018,265.656 274.500,267.625" stroke-width="4.619" stroke="black" fill="none" stroke-linecap="round"></path><path d="M 274.500,267.625 C 271.876,269.487 271.844,269.396 269.500,271.625" stroke-width="4.683" stroke="black" fill="none" stroke-linecap="round"></path><path d="M 269.500,271.625 C 267.124,274.263 266.876,273.987 264.500,276.625" stroke-width="4.681" stroke="black" fill="none" stroke-linecap="round"></path><path d="M 264.500,276.625 C 259.500,278.625 262.124,278.763 259.500,280.625" stroke-width="4.898" stroke="black" fill="none" stroke-linecap="round"></path><path d="M 259.500,280.625 C 261.527,283.733 259.500,282.625 264.500,284.625" stroke-width="5.061" stroke="black" fill="none" stroke-linecap="round"></path><path d="M 264.500,284.625 C 271.966,286.139 271.527,286.733 279.500,286.625" stroke-width="4.182" stroke="black" fill="none" stroke-linecap="round"></path><path d="M 279.500,286.625 C 287.507,286.867 287.466,287.139 295.500,286.625" stroke-width="3.192" stroke="black" fill="none" stroke-linecap="round"></path><path d="M 295.500,286.625 C 304.097,286.855 304.007,286.367 312.500,285.625" stroke-width="2.915" stroke="black" fill="none" stroke-linecap="round"></path><path d="M 312.500,285.625 C 324.443,282.570 324.597,283.855 336.500,280.625" stroke-width="2.392" stroke="black" fill="none" stroke-linecap="round"></path><path d="M 336.500,280.625 C 340.000,280.625 339.943,280.070 343.500,280.625" stroke-width="3.321" stroke="black" fill="none" stroke-linecap="round"></path><path d="M 343.500,280.625 C 351.000,280.625 351.000,280.625 358.500,280.625" stroke-width="3.081" stroke="black" fill="none" stroke-linecap="round"></path><path d="M 358.500,280.625 C 361.513,280.412 361.500,280.625 364.500,280.625" stroke-width="3.798" stroke="black" fill="none" stroke-linecap="round"></path><path d="M 364.500,280.625 C 368.486,281.357 368.513,280.912 372.500,281.625" stroke-width="4.259" stroke="black" fill="none" stroke-linecap="round"></path><path d="M 372.500,281.625 C 376.012,281.407 375.986,281.857 379.500,281.625" stroke-width="4.063" stroke="black" fill="none" stroke-linecap="round"></path><path d="M 282.500,297.625 C 285.527,297.895 285.500,297.625 288.500,297.625" stroke-width="5.319" stroke="black" fill="none" stroke-linecap="round"></path><path d="M 288.500,297.625 C 290.971,296.836 291.027,297.395 293.500,296.625" stroke-width="5.012" stroke="black" fill="none" stroke-linecap="round"></path><path d="M 293.500,296.625 C 297.029,296.914 296.971,296.336 300.500,296.625" stroke-width="4.780" stroke="black" fill="none" stroke-linecap="round"></path><circle r="1.5" cx="498.5" cy="297.625" fill="black"></circle></svg>